<?xml version="1.0" encoding="UTF-8" standalone="no"?>
<!DOCTYPE svg PUBLIC "-//W3C//DTD SVG 1.1//EN" "http://www.w3.org/Graphics/SVG/1.1/DTD/svg11.dtd">
<svg width="100%" height="100%" viewBox="0 0 48 48" version="1.1" xmlns="http://www.w3.org/2000/svg" xmlns:xlink="http://www.w3.org/1999/xlink" xml:space="preserve" xmlns:serif="http://www.serif.com/" style="fill-rule:evenodd;clip-rule:evenodd;stroke-linejoin:round;stroke-miterlimit:2;">
    <g transform="matrix(1,0,0,1,-1896,-1056)">
        <g transform="matrix(0.09375,0,0,0.09375,1920,1080)">
            <g transform="matrix(1,0,0,1,-256,-256)">
                <clipPath id="_clip1">
                    <rect x="0" y="0" width="512" height="512"/>
                </clipPath>
                <g clip-path="url(#_clip1)">
                    <path d="M374.245,285.825L388.349,193.864L300.116,193.864L300.116,134.187C300.116,109.028 312.441,84.505 351.961,84.505L392.078,84.505L392.078,6.214C392.078,6.214 355.67,-0 320.864,-0C248.194,-0 200.699,44.042 200.699,123.775L200.699,193.864L119.922,193.864L119.922,285.825L200.699,285.825L200.699,508.135C216.896,510.677 233.497,512 250.408,512C267.319,512 283.92,510.677 300.116,508.135L300.116,285.825L374.245,285.825Z" style="fill:white;fill-rule:nonzero;"/>
                </g>
            </g>
        </g>
    </g>
</svg>
