<?xml version="1.0" encoding="UTF-8" standalone="no"?>
<!DOCTYPE svg PUBLIC "-//W3C//DTD SVG 1.1//EN" "http://www.w3.org/Graphics/SVG/1.1/DTD/svg11.dtd">
<svg width="100%" height="100%" viewBox="0 0 354 57" version="1.1" xmlns="http://www.w3.org/2000/svg" xmlns:xlink="http://www.w3.org/1999/xlink" xml:space="preserve" xmlns:serif="http://www.serif.com/" style="fill-rule:evenodd;clip-rule:evenodd;stroke-linejoin:round;stroke-miterlimit:2;">
    <g transform="matrix(1,0,0,1,-190.456,-372.468)">
        <g transform="matrix(1,0,0,1,-8.896,-1.88299)">
            <g transform="matrix(1,0,0,1,4.67039,-56)">
                <g transform="matrix(64,0,0,64,192.506,485.391)">
                    <path d="M0.236,0.016C0.192,0.016 0.153,0.009 0.119,-0.005C0.085,-0.018 0.057,-0.038 0.034,-0.065L0.099,-0.168C0.12,-0.145 0.142,-0.128 0.166,-0.116C0.189,-0.103 0.212,-0.097 0.236,-0.098C0.249,-0.097 0.26,-0.1 0.269,-0.104C0.279,-0.108 0.286,-0.115 0.292,-0.123C0.297,-0.131 0.3,-0.141 0.3,-0.153C0.3,-0.166 0.296,-0.176 0.289,-0.184C0.281,-0.192 0.27,-0.199 0.255,-0.205C0.239,-0.212 0.219,-0.22 0.195,-0.23C0.174,-0.239 0.155,-0.249 0.136,-0.26C0.117,-0.271 0.101,-0.285 0.089,-0.302C0.077,-0.319 0.072,-0.34 0.072,-0.366C0.072,-0.398 0.08,-0.426 0.098,-0.45C0.116,-0.474 0.14,-0.493 0.171,-0.507C0.202,-0.52 0.238,-0.527 0.279,-0.527C0.304,-0.527 0.331,-0.523 0.359,-0.516C0.387,-0.508 0.416,-0.496 0.448,-0.481L0.396,-0.382C0.353,-0.41 0.314,-0.424 0.28,-0.424C0.261,-0.424 0.246,-0.419 0.235,-0.411C0.223,-0.403 0.218,-0.392 0.218,-0.38C0.218,-0.368 0.223,-0.357 0.235,-0.348C0.247,-0.339 0.262,-0.332 0.279,-0.325C0.296,-0.318 0.312,-0.312 0.328,-0.306C0.354,-0.297 0.376,-0.286 0.396,-0.275C0.416,-0.264 0.432,-0.249 0.443,-0.231C0.454,-0.213 0.46,-0.188 0.46,-0.158C0.46,-0.121 0.451,-0.09 0.433,-0.064C0.415,-0.038 0.39,-0.018 0.356,-0.005C0.323,0.009 0.283,0.016 0.236,0.016Z" style="fill:white;fill-rule:nonzero;"/>
                </g>
                <g transform="matrix(64,0,0,64,225.274,485.391)">
                    <path d="M0.342,0.016C0.248,0.016 0.181,-0.003 0.14,-0.04C0.098,-0.077 0.078,-0.137 0.078,-0.221L0.078,-0.512L0.231,-0.512L0.231,-0.257C0.231,-0.203 0.239,-0.165 0.256,-0.143C0.273,-0.12 0.302,-0.109 0.342,-0.109C0.382,-0.109 0.411,-0.12 0.427,-0.143C0.444,-0.165 0.452,-0.203 0.452,-0.257L0.452,-0.512L0.606,-0.512L0.606,-0.221C0.606,-0.137 0.585,-0.077 0.544,-0.04C0.503,-0.003 0.435,0.016 0.342,0.016Z" style="fill:white;fill-rule:nonzero;"/>
                </g>
                <g transform="matrix(64,0,0,64,268.762,485.391)">
                    <path d="M0.236,0.016C0.192,0.016 0.153,0.009 0.119,-0.005C0.085,-0.018 0.057,-0.038 0.034,-0.065L0.099,-0.168C0.12,-0.145 0.142,-0.128 0.166,-0.116C0.189,-0.103 0.212,-0.097 0.236,-0.098C0.249,-0.097 0.26,-0.1 0.269,-0.104C0.279,-0.108 0.286,-0.115 0.292,-0.123C0.297,-0.131 0.3,-0.141 0.3,-0.153C0.3,-0.166 0.296,-0.176 0.289,-0.184C0.281,-0.192 0.27,-0.199 0.255,-0.205C0.239,-0.212 0.219,-0.22 0.195,-0.23C0.174,-0.239 0.155,-0.249 0.136,-0.26C0.117,-0.271 0.101,-0.285 0.089,-0.302C0.077,-0.319 0.072,-0.34 0.072,-0.366C0.072,-0.398 0.08,-0.426 0.098,-0.45C0.116,-0.474 0.14,-0.493 0.171,-0.507C0.202,-0.52 0.238,-0.527 0.279,-0.527C0.304,-0.527 0.331,-0.523 0.359,-0.516C0.387,-0.508 0.416,-0.496 0.448,-0.481L0.396,-0.382C0.353,-0.41 0.314,-0.424 0.28,-0.424C0.261,-0.424 0.246,-0.419 0.235,-0.411C0.223,-0.403 0.218,-0.392 0.218,-0.38C0.218,-0.368 0.223,-0.357 0.235,-0.348C0.247,-0.339 0.262,-0.332 0.279,-0.325C0.296,-0.318 0.312,-0.312 0.328,-0.306C0.354,-0.297 0.376,-0.286 0.396,-0.275C0.416,-0.264 0.432,-0.249 0.443,-0.231C0.454,-0.213 0.46,-0.188 0.46,-0.158C0.46,-0.121 0.451,-0.09 0.433,-0.064C0.415,-0.038 0.39,-0.018 0.356,-0.005C0.323,0.009 0.283,0.016 0.236,0.016Z" style="fill:white;fill-rule:nonzero;"/>
                </g>
                <g transform="matrix(64,0,0,64,301.53,485.391)">
                    <path d="M0.091,-0L0.091,-0.86L0.244,-0.86L0.244,-0.455C0.264,-0.477 0.288,-0.495 0.318,-0.508C0.347,-0.521 0.38,-0.528 0.416,-0.528C0.455,-0.528 0.489,-0.519 0.519,-0.502C0.549,-0.485 0.573,-0.461 0.59,-0.431C0.607,-0.4 0.615,-0.365 0.615,-0.324L0.615,-0L0.462,-0L0.462,-0.292C0.462,-0.328 0.452,-0.357 0.433,-0.377C0.414,-0.398 0.387,-0.408 0.354,-0.408C0.331,-0.408 0.312,-0.403 0.295,-0.394C0.279,-0.385 0.266,-0.373 0.257,-0.357C0.248,-0.341 0.244,-0.323 0.244,-0.303L0.244,-0L0.091,-0Z" style="fill:white;fill-rule:nonzero;"/>
                </g>
                <g transform="matrix(64,0,0,64,346.01,485.391)">
                    <path d="M0.09,-0L0.09,-0.512L0.244,-0.512L0.244,-0L0.09,-0ZM0.167,-0.619C0.15,-0.619 0.135,-0.623 0.121,-0.631C0.107,-0.639 0.096,-0.65 0.088,-0.664C0.08,-0.678 0.076,-0.693 0.076,-0.71C0.076,-0.727 0.08,-0.742 0.088,-0.756C0.096,-0.769 0.107,-0.78 0.121,-0.788C0.135,-0.796 0.15,-0.801 0.167,-0.801C0.184,-0.801 0.199,-0.796 0.213,-0.788C0.226,-0.78 0.237,-0.769 0.245,-0.756C0.253,-0.742 0.258,-0.727 0.258,-0.71C0.258,-0.693 0.253,-0.678 0.245,-0.664C0.237,-0.65 0.226,-0.639 0.213,-0.631C0.199,-0.623 0.184,-0.619 0.167,-0.619Z" style="fill:white;fill-rule:nonzero;"/>
                </g>
                <g transform="matrix(64,0,0,64,367.386,485.391)">
                    <path d="M0.267,0.016C0.216,0.016 0.176,-0 0.148,-0.033C0.12,-0.065 0.106,-0.111 0.106,-0.169L0.106,-0.396L0.037,-0.396L0.037,-0.512L0.106,-0.512L0.106,-0.704L0.259,-0.704L0.259,-0.512L0.372,-0.512L0.372,-0.396L0.259,-0.396L0.259,-0.18C0.259,-0.161 0.263,-0.146 0.271,-0.136C0.279,-0.126 0.29,-0.121 0.304,-0.121C0.32,-0.121 0.335,-0.126 0.35,-0.137L0.389,-0.014C0.371,-0.005 0.352,0.003 0.33,0.008C0.309,0.013 0.288,0.016 0.267,0.016Z" style="fill:white;fill-rule:nonzero;"/>
                </g>
                <g transform="matrix(64,0,0,64,394.81,485.391)">
                    <path d="M0.304,0.016C0.257,0.016 0.214,0.004 0.176,-0.019C0.137,-0.043 0.107,-0.075 0.084,-0.116C0.062,-0.157 0.051,-0.204 0.051,-0.257C0.051,-0.308 0.061,-0.354 0.083,-0.395C0.105,-0.436 0.135,-0.468 0.173,-0.492C0.211,-0.516 0.255,-0.528 0.304,-0.528C0.34,-0.528 0.374,-0.521 0.406,-0.507C0.437,-0.493 0.463,-0.474 0.483,-0.45L0.483,-0.512L0.637,-0.512L0.637,-0L0.483,-0L0.483,-0.068C0.46,-0.041 0.433,-0.02 0.403,-0.006C0.372,0.009 0.339,0.016 0.304,0.016ZM0.35,-0.115C0.376,-0.115 0.4,-0.121 0.421,-0.133C0.441,-0.145 0.457,-0.162 0.469,-0.183C0.481,-0.204 0.487,-0.229 0.487,-0.256C0.487,-0.284 0.481,-0.308 0.469,-0.329C0.457,-0.35 0.441,-0.367 0.42,-0.379C0.4,-0.391 0.376,-0.398 0.35,-0.398C0.323,-0.398 0.3,-0.391 0.279,-0.379C0.258,-0.367 0.242,-0.35 0.23,-0.329C0.218,-0.308 0.212,-0.283 0.212,-0.256C0.212,-0.229 0.218,-0.204 0.23,-0.183C0.242,-0.162 0.258,-0.145 0.279,-0.133C0.299,-0.121 0.323,-0.115 0.35,-0.115Z" style="fill:white;fill-rule:nonzero;"/>
                </g>
                <g transform="matrix(64,0,0,64,441.306,485.391)">
                    <path d="M0.091,-0L0.091,-0.512L0.244,-0.512L0.244,-0.455C0.269,-0.48 0.295,-0.499 0.32,-0.511C0.345,-0.522 0.372,-0.528 0.401,-0.528C0.44,-0.528 0.475,-0.519 0.507,-0.502C0.539,-0.484 0.561,-0.46 0.575,-0.431C0.6,-0.463 0.627,-0.487 0.656,-0.504C0.684,-0.52 0.717,-0.528 0.754,-0.528C0.791,-0.528 0.824,-0.52 0.853,-0.505C0.881,-0.49 0.904,-0.468 0.92,-0.44C0.937,-0.412 0.945,-0.378 0.945,-0.34L0.945,-0L0.792,-0L0.792,-0.298C0.792,-0.331 0.783,-0.358 0.766,-0.377C0.748,-0.396 0.725,-0.406 0.696,-0.406C0.676,-0.406 0.658,-0.401 0.643,-0.393C0.628,-0.385 0.616,-0.374 0.608,-0.36C0.599,-0.345 0.595,-0.33 0.595,-0.313L0.595,-0L0.441,-0L0.441,-0.301C0.441,-0.333 0.433,-0.358 0.416,-0.377C0.399,-0.396 0.376,-0.406 0.346,-0.406C0.326,-0.406 0.309,-0.401 0.293,-0.393C0.278,-0.385 0.266,-0.373 0.257,-0.359C0.248,-0.345 0.244,-0.329 0.244,-0.312L0.244,-0L0.091,-0Z" style="fill:white;fill-rule:nonzero;"/>
                </g>
                <g transform="matrix(64,0,0,64,507.034,485.391)">
                    <path d="M0.304,0.016C0.257,0.016 0.214,0.004 0.176,-0.019C0.137,-0.043 0.107,-0.075 0.084,-0.116C0.062,-0.157 0.051,-0.204 0.051,-0.257C0.051,-0.308 0.061,-0.354 0.083,-0.395C0.105,-0.436 0.135,-0.468 0.173,-0.492C0.211,-0.516 0.255,-0.528 0.304,-0.528C0.34,-0.528 0.374,-0.521 0.406,-0.507C0.437,-0.493 0.463,-0.474 0.483,-0.45L0.483,-0.512L0.637,-0.512L0.637,-0L0.483,-0L0.483,-0.068C0.46,-0.041 0.433,-0.02 0.403,-0.006C0.372,0.009 0.339,0.016 0.304,0.016ZM0.35,-0.115C0.376,-0.115 0.4,-0.121 0.421,-0.133C0.441,-0.145 0.457,-0.162 0.469,-0.183C0.481,-0.204 0.487,-0.229 0.487,-0.256C0.487,-0.284 0.481,-0.308 0.469,-0.329C0.457,-0.35 0.441,-0.367 0.42,-0.379C0.4,-0.391 0.376,-0.398 0.35,-0.398C0.323,-0.398 0.3,-0.391 0.279,-0.379C0.258,-0.367 0.242,-0.35 0.23,-0.329C0.218,-0.308 0.212,-0.283 0.212,-0.256C0.212,-0.229 0.218,-0.204 0.23,-0.183C0.242,-0.162 0.258,-0.145 0.279,-0.133C0.299,-0.121 0.323,-0.115 0.35,-0.115Z" style="fill:white;fill-rule:nonzero;"/>
                </g>
            </g>
            <g transform="matrix(0.866667,0,0,0.866667,222.4,-52)">
                <circle cx="160.5" cy="502.5" r="7.5" style="fill:rgb(85,139,47);"/>
            </g>
        </g>
    </g>
</svg>
